<svg xmlns="http://www.w3.org/2000/svg" viewBox="0 0 360 240" role="img" aria-label="Give answers">
  <rect width="360" height="240" fill="transparent"/>
  <rect x="78" y="70" width="204" height="90" rx="8" fill="#ffffff" stroke="#d8dde4"/>
  <text x="94" y="98" font-family="Arial, sans-serif" font-size="11.5" fill="#374151">The URL of the TNPVC analytics still</text>
  <text x="94" y="115" font-family="Arial, sans-serif" font-size="11.5" fill="#374151">visible in customer project forms?</text>
  <circle cx="120" cy="135" r="4" fill="#6b7280"/>
  <text x="130" y="139" font-family="Arial, sans-serif" font-size="11.5" fill="#4b5563">Yes</text>
  <circle cx="165" cy="135" r="4" fill="#6b7280"/>
  <text x="175" y="139" font-family="Arial, sans-serif" font-size="11.5" fill="#4b5563">No</text>

  <rect x="88" y="34" width="52" height="52" fill="#f6e087" transform="rotate(-2 114 60)"/>
  <circle cx="114" cy="59" r="14" fill="#4b5563"/>
  <rect x="140" y="25" width="54" height="54" fill="#98dfd7" transform="rotate(4 167 52)"/>
  <circle cx="167" cy="51" r="14" fill="#4b5563"/>
  <rect x="193" y="30" width="52" height="52" fill="#efb5cb" transform="rotate(-5 219 56)"/>
  <circle cx="219" cy="55" r="14" fill="#4b5563"/>

  <circle cx="248" cy="196" r="23" fill="#68a8ff"/>
  <path d="M224 184c15 1 23 14 24 25" stroke="#d1d5db" stroke-width="8" fill="none" stroke-linecap="round"/>
  <path d="M242 173l22 22" stroke="#d1d5db" stroke-width="6" fill="none" stroke-linecap="round"/>
</svg>
