<svg xmlns="http://www.w3.org/2000/svg" viewBox="0 0 900 620" role="img" aria-labelledby="title desc">
  <title id="title">House Interior Cartoon</title>
  <desc id="desc">Cartoon style living room interior illustration for TNPVC home interiors.</desc>
  <defs>
    <linearGradient id="wall" x1="0" y1="0" x2="0" y2="1">
      <stop offset="0" stop-color="#f8fafc"/>
      <stop offset="1" stop-color="#eef2f7"/>
    </linearGradient>
    <linearGradient id="floor" x1="0" y1="0" x2="1" y2="1">
      <stop offset="0" stop-color="#e7d3b5"/>
      <stop offset="1" stop-color="#d9bc95"/>
    </linearGradient>
    <linearGradient id="window" x1="0" y1="0" x2="0" y2="1">
      <stop offset="0" stop-color="#dbeafe"/>
      <stop offset="1" stop-color="#93c5fd"/>
    </linearGradient>
    <filter id="shadow" x="-20%" y="-20%" width="140%" height="140%">
      <feDropShadow dx="0" dy="6" stdDeviation="6" flood-color="#0f172a" flood-opacity="0.16"/>
    </filter>
  </defs>

  <rect width="900" height="620" rx="28" fill="#f1f5f9"/>

  <rect x="36" y="36" width="828" height="548" rx="24" fill="url(#wall)" stroke="#dbe2ea" stroke-width="3"/>
  <rect x="36" y="390" width="828" height="194" rx="0" fill="url(#floor)"/>

  <rect x="430" y="92" width="360" height="240" rx="16" fill="#ffffff" stroke="#cbd5e1"/>
  <rect x="448" y="110" width="324" height="204" rx="10" fill="url(#window)"/>
  <line x1="610" y1="110" x2="610" y2="314" stroke="#ffffff" stroke-width="8"/>
  <line x1="448" y1="212" x2="772" y2="212" stroke="#ffffff" stroke-width="8"/>

  <rect x="84" y="120" width="250" height="20" rx="10" fill="#22c55e"/>
  <text x="92" y="136" font-family="Plus Jakarta Sans, Arial, sans-serif" font-size="14" font-weight="700" fill="#064e3b">TNPVC INTERIOR PLAN</text>

  <rect x="120" y="170" width="220" height="180" rx="16" fill="#f8fafc" stroke="#cfd8e3"/>
  <rect x="140" y="196" width="70" height="45" rx="8" fill="#bfdbfe"/>
  <rect x="220" y="196" width="100" height="10" rx="5" fill="#d1d5db"/>
  <rect x="220" y="214" width="90" height="10" rx="5" fill="#e5e7eb"/>
  <rect x="140" y="256" width="180" height="12" rx="6" fill="#e2e8f0"/>
  <rect x="140" y="276" width="150" height="12" rx="6" fill="#e2e8f0"/>
  <rect x="140" y="302" width="120" height="30" rx="8" fill="#dcfce7"/>

  <rect x="258" y="410" width="380" height="130" rx="26" fill="#10b981" filter="url(#shadow)"/>
  <rect x="214" y="430" width="70" height="84" rx="12" fill="#0f766e"/>
  <rect x="612" y="430" width="70" height="84" rx="12" fill="#0f766e"/>
  <rect x="306" y="438" width="286" height="72" rx="20" fill="#34d399"/>

  <rect x="386" y="372" width="124" height="44" rx="12" fill="#bbf7d0"/>
  <rect x="426" y="334" width="46" height="46" rx="23" fill="#fde68a"/>
  <rect x="448" y="380" width="6" height="30" fill="#166534"/>

  <rect x="116" y="440" width="102" height="60" rx="10" fill="#f59e0b"/>
  <rect x="130" y="452" width="34" height="34" rx="6" fill="#fef3c7"/>
  <rect x="172" y="452" width="34" height="34" rx="6" fill="#fef3c7"/>
  <rect x="700" y="448" width="132" height="50" rx="12" fill="#ef4444"/>
  <text x="720" y="479" font-family="Plus Jakarta Sans, Arial, sans-serif" font-size="20" font-weight="800" fill="#ffffff">HOME</text>

  <rect x="54" y="64" width="792" height="16" rx="8" fill="#e2e8f0" opacity="0.7"/>
</svg>
