<svg xmlns="http://www.w3.org/2000/svg" viewBox="0 0 900 700" role="img" aria-labelledby="title desc">
  <title id="title">Services Hero Collage</title>
  <desc id="desc">Illustration with green abstract shape, support cards and avatar for services hero section.</desc>
  <defs>
    <linearGradient id="blobGrad" x1="0" y1="0" x2="1" y2="1">
      <stop offset="0" stop-color="#0a8b6f"/>
      <stop offset="1" stop-color="#24b78f"/>
    </linearGradient>
    <linearGradient id="chip" x1="0" y1="0" x2="1" y2="1">
      <stop offset="0" stop-color="#49d3b0"/>
      <stop offset="1" stop-color="#118a6f"/>
    </linearGradient>
    <filter id="shadow" x="-20%" y="-20%" width="140%" height="140%">
      <feDropShadow dx="0" dy="8" stdDeviation="8" flood-color="#0f172a" flood-opacity="0.2"/>
    </filter>
  </defs>

  <rect width="900" height="700" fill="transparent"/>

  <path d="M454 92c116 2 244 59 269 165 24 99-44 220-155 277-114 58-272 52-352-31-75-79-73-221-5-311 57-76 144-102 243-100z"
    fill="url(#blobGrad)" filter="url(#shadow)"/>

  <path d="M182 261c18 60 5 128-35 174" stroke="#111827" stroke-width="6" fill="none"/>
  <path d="M643 109c85 27 152 108 167 197" stroke="#111827" stroke-width="6" fill="none"/>
  <path d="M289 137c-20 31-25 75-11 109" stroke="#10b981" stroke-width="6" fill="none" stroke-linecap="round"/>
  <path d="M310 133c22 14 39 36 47 61" stroke="#10b981" stroke-width="6" fill="none" stroke-linecap="round"/>

  <g transform="translate(160 322) rotate(-8)">
    <rect x="0" y="0" width="170" height="210" rx="22" fill="#f97316"/>
    <rect x="14" y="16" width="142" height="178" rx="16" fill="#fff"/>
    <circle cx="85" cy="90" r="48" fill="#d1d5db"/>
    <rect x="42" y="145" width="86" height="32" rx="16" fill="#9ca3af"/>
    <path d="M44 77c12-13 23-18 41-18 20 0 32 7 42 19" stroke="#374151" stroke-width="4" fill="none"/>
    <circle cx="68" cy="91" r="5" fill="#111827"/>
    <circle cx="103" cy="91" r="5" fill="#111827"/>
    <path d="M70 111c11 8 21 8 32 0" stroke="#111827" stroke-width="4" fill="none" stroke-linecap="round"/>
  </g>

  <g transform="translate(348 238)">
    <rect x="0" y="0" width="206" height="88" rx="14" fill="#fff" filter="url(#shadow)"/>
    <circle cx="22" cy="20" r="7" fill="#f97316"/>
    <text x="38" y="26" font-size="18" font-family="Arial, sans-serif" font-weight="700" fill="#111827">Anomalies</text>
    <text x="16" y="50" font-size="14" font-family="Arial, sans-serif" fill="#374151">1545 increase in</text>
    <text x="16" y="69" font-size="14" font-family="Arial, sans-serif" fill="#374151">incoming tickets</text>
  </g>

  <g transform="translate(562 210)">
    <rect x="0" y="0" width="230" height="120" rx="14" fill="#fff" filter="url(#shadow)"/>
    <circle cx="22" cy="22" r="7" fill="#10b981"/>
    <text x="38" y="28" font-size="18" font-family="Arial, sans-serif" font-weight="700" fill="#111827">Answer Bot</text>
    <rect x="16" y="44" width="198" height="28" rx="8" fill="#f3f4f6"/>
    <text x="24" y="63" font-size="13" font-family="Arial, sans-serif" fill="#374151">Style</text>
    <text x="155" y="63" font-size="13" font-family="Arial, sans-serif" fill="#111827">Blend</text>
    <rect x="16" y="78" width="198" height="28" rx="8" fill="#f3f4f6"/>
    <text x="24" y="97" font-size="13" font-family="Arial, sans-serif" fill="#374151">Send welcome mail</text>
  </g>

  <g transform="translate(330 360)">
    <rect x="0" y="0" width="230" height="70" rx="14" fill="#fff" filter="url(#shadow)"/>
    <circle cx="22" cy="20" r="7" fill="#111827"/>
    <text x="38" y="26" font-size="17" font-family="Arial, sans-serif" font-weight="700" fill="#111827">Ask me something</text>
    <text x="18" y="52" font-size="13" font-family="Arial, sans-serif" fill="#374151">Is this board</text>
    <text x="18" y="66" font-size="13" font-family="Arial, sans-serif" fill="#374151">available in...</text>
  </g>

  <g transform="translate(520 456)">
    <rect x="0" y="0" width="246" height="116" rx="14" fill="#fff" filter="url(#shadow)"/>
    <circle cx="22" cy="22" r="7" fill="#0ea5e9"/>
    <text x="38" y="28" font-size="18" font-family="Arial, sans-serif" font-weight="700" fill="#111827">Customize</text>
    <rect x="18" y="46" width="98" height="26" rx="8" fill="#f3f4f6"/>
    <text x="28" y="63" font-size="12" font-family="Arial, sans-serif" fill="#111827">Language</text>
    <text x="85" y="63" font-size="12" font-family="Arial, sans-serif" fill="#374151">French</text>
    <rect x="130" y="46" width="98" height="26" rx="8" fill="#f3f4f6"/>
    <text x="140" y="63" font-size="12" font-family="Arial, sans-serif" fill="#111827">Format</text>
    <text x="188" y="63" font-size="12" font-family="Arial, sans-serif" fill="#374151">MD</text>
    <rect x="18" y="78" width="98" height="26" rx="8" fill="#f3f4f6"/>
    <text x="28" y="95" font-size="12" font-family="Arial, sans-serif" fill="#111827">Length</text>
    <text x="83" y="95" font-size="12" font-family="Arial, sans-serif" fill="#374151">Short</text>
  </g>

  <g transform="translate(330 472)">
    <rect x="0" y="0" width="160" height="82" rx="14" fill="#fff" filter="url(#shadow)"/>
    <text x="16" y="24" font-size="15" font-family="Arial, sans-serif" font-weight="700" fill="#111827">Ticket Tone</text>
    <rect x="16" y="38" width="58" height="28" rx="8" fill="#ecfdf5"/>
    <text x="24" y="56" font-size="12" font-family="Arial, sans-serif" fill="#047857">Casual</text>
  </g>

  <g transform="translate(720 94)">
    <rect x="0" y="0" width="110" height="96" rx="22" fill="#f59e0b" filter="url(#shadow)"/>
    <rect x="-16" y="6" width="110" height="96" rx="22" fill="url(#chip)"/>
    <circle cx="18" cy="48" r="8" fill="#ecfeff"/>
    <circle cx="58" cy="48" r="8" fill="#ecfeff"/>
    <path d="M16 69c10 10 36 10 46 0" stroke="#ecfeff" stroke-width="6" fill="none" stroke-linecap="round"/>
  </g>

  <g transform="translate(705 520)">
    <path d="M0 32l16 10-6 17 18-8 15 11-2-19 18-8-18-7 2-19-15 12-18-8 6 17z" fill="#facc15"/>
    <path d="M48 52l11 7-4 12 12-6 10 7-2-13 12-5-12-5 2-13-10 8-12-6 4 11z" fill="#fcd34d"/>
  </g>
</svg>
