<svg xmlns="http://www.w3.org/2000/svg" viewBox="0 0 1200 640" role="img" aria-labelledby="title desc">
  <title id="title">TNPVC Remote Support Network</title>
  <desc id="desc">TNPVC house interior remote support visual with connected teams across regions.</desc>
  <defs>
    <linearGradient id="earth" x1="0" y1="0" x2="1" y2="1">
      <stop offset="0" stop-color="#f3e8ff"/>
      <stop offset="1" stop-color="#d8b4fe"/>
    </linearGradient>
    <linearGradient id="cardShade" x1="0" y1="0" x2="0" y2="1">
      <stop offset="0" stop-color="#ffffff"/>
      <stop offset="1" stop-color="#f8fafc"/>
    </linearGradient>
  </defs>

  <rect width="1200" height="640" fill="transparent"/>

  <path d="M110 620c85-180 280-290 490-290s405 110 490 290" fill="url(#earth)" opacity="0.95"/>
  <path d="M170 620c77-142 243-226 430-226s353 84 430 226" fill="none" stroke="#a855f7" stroke-width="2" stroke-dasharray="2 8"/>
  <path d="M260 620c63-107 196-170 340-170s277 63 340 170" fill="none" stroke="#9333ea" stroke-width="2" stroke-dasharray="2 8"/>

  <path d="M335 530l40-26 44 15 36-24 54 10 34-24 48 18 42-22 68 14 44-28 50 18" fill="none" stroke="#7e22ce" stroke-width="8" stroke-linecap="round" opacity="0.75"/>
  <path d="M260 552l48-36 64 16 56-22 72 18 58-26 74 18 56-18 74 22" fill="none" stroke="#6b21a8" stroke-width="6" stroke-linecap="round" opacity="0.6"/>

  <path d="M350 340c150-88 350-88 500 0" fill="none" stroke="#5eead4" stroke-width="3"/>
  <circle cx="600" cy="340" r="14" fill="#6b21a8"/>
  <circle cx="350" cy="340" r="14" fill="#d8b4fe"/>
  <circle cx="850" cy="340" r="14" fill="#d8b4fe"/>

  <g transform="translate(360 170)">
    <rect x="0" y="0" width="210" height="190" rx="16" fill="url(#cardShade)" stroke="#d1d5db"/>
    <rect x="0" y="0" width="210" height="42" rx="16" fill="#4b2491"/>
    <text x="16" y="28" font-family="Arial, sans-serif" font-size="15" font-weight="700" fill="#ecfeff">TNPVC Site Desk</text>
    <circle cx="105" cy="104" r="34" fill="#dbeafe"/>
    <rect x="58" y="142" width="94" height="30" rx="15" fill="#e9d5ff"/>
  </g>

  <g transform="translate(640 170)">
    <rect x="0" y="0" width="210" height="190" rx="16" fill="url(#cardShade)" stroke="#d1d5db"/>
    <rect x="0" y="0" width="210" height="42" rx="16" fill="#5b21b6"/>
    <text x="16" y="28" font-family="Arial, sans-serif" font-size="15" font-weight="700" fill="#ecfeff">Homeowner Help</text>
    <circle cx="105" cy="104" r="34" fill="#fef3c7"/>
    <rect x="58" y="142" width="94" height="30" rx="15" fill="#dbeafe"/>
  </g>

  <circle cx="300" cy="500" r="22" fill="#fde68a" stroke="#f59e0b"/>
  <circle cx="900" cy="500" r="22" fill="#fde68a" stroke="#f59e0b"/>
  <circle cx="600" cy="470" r="24" fill="#e9d5ff" stroke="#6b21a8"/>
</svg>
