<svg xmlns="http://www.w3.org/2000/svg" viewBox="0 0 1200 620" role="img" aria-labelledby="title desc">
  <title id="title">TNPVC Community Global Support</title>
  <desc id="desc">Connected support visual with two professionals and global collaboration arc.</desc>
  <defs>
    <linearGradient id="g1" x1="0" y1="0" x2="1" y2="1">
      <stop offset="0" stop-color="#d7f5e4"/>
      <stop offset="1" stop-color="#b8ebcf"/>
    </linearGradient>
  </defs>
  <rect width="1200" height="620" fill="transparent"/>
  <path d="M130 590c86-165 273-264 470-264s384 99 470 264" fill="url(#g1)" opacity="0.95"/>
  <path d="M230 590c77-123 224-195 370-195s293 72 370 195" fill="none" stroke="#35b56f" stroke-width="2" stroke-dasharray="2 8"/>
  <path d="M350 312c150-74 350-74 500 0" fill="none" stroke="#3ad49a" stroke-width="3"/>
  <circle cx="350" cy="312" r="14" fill="#f6d365"/>
  <circle cx="600" cy="312" r="14" fill="#34c989"/>
  <circle cx="850" cy="312" r="14" fill="#f6d365"/>

  <g transform="translate(390 95)">
    <rect x="0" y="0" width="200" height="210" rx="16" fill="#fff" stroke="#d9dee5"/>
    <rect x="18" y="18" width="164" height="124" rx="10" fill="#d6e8f8"/>
    <circle cx="100" cy="90" r="34" fill="#9ab9d5"/>
    <rect x="58" y="150" width="84" height="30" rx="15" fill="#ecf0f4"/>
  </g>

  <g transform="translate(610 95)">
    <rect x="0" y="0" width="200" height="210" rx="16" fill="#fff" stroke="#d9dee5"/>
    <rect x="18" y="18" width="164" height="124" rx="10" fill="#fde7b8"/>
    <circle cx="100" cy="90" r="34" fill="#f1c06d"/>
    <rect x="58" y="150" width="84" height="30" rx="15" fill="#fff2d8"/>
  </g>
</svg>
