<svg xmlns="http://www.w3.org/2000/svg" viewBox="0 0 900 500" role="img" aria-label="TNPVC community people illustration">
  <rect width="900" height="500" fill="transparent"/>
  <g opacity="0.17" fill="#9ec3d8">
    <rect x="70" y="170" width="60" height="190"/>
    <rect x="150" y="120" width="70" height="240"/>
    <rect x="245" y="95" width="55" height="265"/>
    <rect x="320" y="150" width="80" height="210"/>
    <path d="M450 360v-220h55v220z"/>
    <path d="M530 360v-180h40v180z"/>
    <path d="M600 360v-240h85v240z"/>
    <path d="M725 360v-200h65v200z"/>
  </g>

  <g>
    <circle cx="380" cy="152" r="32" fill="#5e6f7b"/>
    <rect x="340" y="185" width="80" height="70" rx="26" fill="#9ad7ec"/>

    <circle cx="460" cy="130" r="32" fill="#5e6f7b"/>
    <rect x="420" y="163" width="80" height="78" rx="26" fill="#f8df78"/>

    <circle cx="540" cy="148" r="32" fill="#5e6f7b"/>
    <rect x="500" y="181" width="80" height="72" rx="26" fill="#9ad88a"/>

    <circle cx="620" cy="138" r="32" fill="#5e6f7b"/>
    <rect x="580" y="172" width="80" height="70" rx="26" fill="#ecb5d8"/>

    <circle cx="700" cy="153" r="32" fill="#5e6f7b"/>
    <rect x="660" y="186" width="80" height="72" rx="26" fill="#ffd08a"/>
  </g>

  <g>
    <circle cx="325" cy="235" r="31" fill="#5e6f7b"/>
    <rect x="285" y="268" width="80" height="74" rx="24" fill="#aee293"/>

    <circle cx="405" cy="247" r="31" fill="#5e6f7b"/>
    <rect x="365" y="280" width="80" height="78" rx="24" fill="#f4c6a4"/>

    <circle cx="485" cy="235" r="31" fill="#5e6f7b"/>
    <rect x="445" y="268" width="80" height="74" rx="24" fill="#95ccf0"/>

    <circle cx="565" cy="246" r="31" fill="#5e6f7b"/>
    <rect x="525" y="279" width="80" height="74" rx="24" fill="#f6e182"/>

    <circle cx="645" cy="236" r="31" fill="#5e6f7b"/>
    <rect x="605" y="269" width="80" height="76" rx="24" fill="#9fe0cf"/>

    <circle cx="725" cy="248" r="31" fill="#5e6f7b"/>
    <rect x="685" y="281" width="80" height="72" rx="24" fill="#aeb2f4"/>
  </g>

  <g>
    <circle cx="290" cy="330" r="30" fill="#5e6f7b"/>
    <rect x="250" y="362" width="80" height="86" rx="24" fill="#8fdfa0"/>

    <circle cx="372" cy="344" r="30" fill="#5e6f7b"/>
    <rect x="332" y="376" width="80" height="86" rx="24" fill="#ffdb91"/>

    <circle cx="454" cy="332" r="30" fill="#5e6f7b"/>
    <rect x="414" y="364" width="80" height="86" rx="24" fill="#f4a6a0"/>

    <circle cx="536" cy="344" r="30" fill="#5e6f7b"/>
    <rect x="496" y="376" width="80" height="86" rx="24" fill="#c8b4f6"/>

    <circle cx="618" cy="334" r="30" fill="#5e6f7b"/>
    <rect x="578" y="366" width="80" height="86" rx="24" fill="#f3e48d"/>

    <circle cx="700" cy="344" r="30" fill="#5e6f7b"/>
    <rect x="660" y="376" width="80" height="86" rx="24" fill="#9ed7f2"/>
  </g>
</svg>
