<svg xmlns="http://www.w3.org/2000/svg" viewBox="0 0 900 620" role="img" aria-labelledby="title desc">
  <title id="title">TNPVC Website Illustration</title>
  <desc id="desc">Cartoon style illustration of a construction website dashboard for TNPVC.</desc>
  <defs>
    <linearGradient id="bg" x1="0" y1="0" x2="1" y2="1">
      <stop offset="0" stop-color="#ecfdf5"/>
      <stop offset="1" stop-color="#dcfce7"/>
    </linearGradient>
    <linearGradient id="card" x1="0" y1="0" x2="0" y2="1">
      <stop offset="0" stop-color="#ffffff"/>
      <stop offset="1" stop-color="#f8fafc"/>
    </linearGradient>
    <filter id="shadow" x="-20%" y="-20%" width="140%" height="140%">
      <feDropShadow dx="0" dy="8" stdDeviation="8" flood-color="#0f172a" flood-opacity="0.12"/>
    </filter>
  </defs>

  <rect width="900" height="620" rx="28" fill="url(#bg)"/>

  <rect x="95" y="75" width="710" height="470" rx="24" fill="url(#card)" stroke="#cbd5e1" filter="url(#shadow)"/>
  <rect x="95" y="75" width="710" height="52" rx="24" fill="#0f766e"/>
  <circle cx="133" cy="101" r="8" fill="#fca5a5"/>
  <circle cx="158" cy="101" r="8" fill="#fde68a"/>
  <circle cx="183" cy="101" r="8" fill="#86efac"/>
  <text x="615" y="108" font-family="Plus Jakarta Sans, Arial, sans-serif" font-size="18" font-weight="700" fill="#ecfeff">TNPVC</text>

  <rect x="130" y="160" width="170" height="340" rx="16" fill="#f1f5f9"/>
  <rect x="150" y="195" width="130" height="12" rx="6" fill="#cbd5e1"/>
  <rect x="150" y="226" width="100" height="12" rx="6" fill="#d1d5db"/>
  <rect x="150" y="270" width="130" height="54" rx="12" fill="#dcfce7"/>
  <rect x="150" y="338" width="130" height="54" rx="12" fill="#dbeafe"/>
  <rect x="150" y="406" width="130" height="54" rx="12" fill="#fee2e2"/>

  <rect x="330" y="160" width="440" height="340" rx="18" fill="#ffffff" stroke="#e2e8f0"/>
  <text x="356" y="200" font-family="Plus Jakarta Sans, Arial, sans-serif" font-size="24" font-weight="800" fill="#0f172a">Project Dashboard</text>

  <rect x="356" y="225" width="160" height="14" rx="7" fill="#e2e8f0"/>
  <rect x="356" y="252" width="220" height="14" rx="7" fill="#e2e8f0"/>

  <rect x="356" y="290" width="180" height="170" rx="14" fill="#f0fdf4" stroke="#bbf7d0"/>
  <rect x="380" y="324" width="45" height="110" rx="8" fill="#22c55e"/>
  <rect x="438" y="348" width="45" height="86" rx="8" fill="#10b981"/>
  <rect x="496" y="306" width="16" height="128" rx="8" fill="#a7f3d0"/>
  <text x="380" y="312" font-family="Plus Jakarta Sans, Arial, sans-serif" font-size="14" font-weight="700" fill="#166534">Progress</text>

  <rect x="556" y="290" width="188" height="78" rx="14" fill="#eff6ff" stroke="#bfdbfe"/>
  <text x="574" y="322" font-family="Plus Jakarta Sans, Arial, sans-serif" font-size="15" font-weight="700" fill="#1e3a8a">Site Updates</text>
  <rect x="574" y="334" width="148" height="10" rx="5" fill="#bfdbfe"/>
  <rect x="574" y="349" width="110" height="10" rx="5" fill="#93c5fd"/>

  <rect x="556" y="382" width="188" height="78" rx="14" fill="#fff7ed" stroke="#fed7aa"/>
  <text x="574" y="414" font-family="Plus Jakarta Sans, Arial, sans-serif" font-size="15" font-weight="700" fill="#9a3412">Materials</text>
  <rect x="574" y="426" width="132" height="10" rx="5" fill="#fdba74"/>
  <rect x="574" y="441" width="90" height="10" rx="5" fill="#fb923c"/>

  <circle cx="770" cy="150" r="38" fill="#dcfce7" stroke="#86efac"/>
  <path d="M753 150l10 10 18-22" fill="none" stroke="#16a34a" stroke-width="8" stroke-linecap="round" stroke-linejoin="round"/>

  <rect x="64" y="522" width="772" height="12" rx="6" fill="#bbf7d0"/>
</svg>
